Coordinates
version=1
nRows=22
nColumns=24
inDegrees=yes

Units are S.I. units (second, meters, Newtons, ...)
Angles are in degrees.

endheader
time	pelvis_tilt	pelvis_list	pelvis_rotation	pelvis_tx	pelvis_ty	pelvis_tz	hip_flexion_r	hip_adduction_r	hip_rotation_r	knee_angle_r	ankle_angle_r	subtalar_angle_r	mtp_angle_r	hip_flexion_l	hip_adduction_l	hip_rotation_l	knee_angle_l	ankle_angle_l	subtalar_angle_l	mtp_angle_l	lumbar_extension	lumbar_bending	lumbar_rotation
      1.38300000	      3.61656139	      4.58588183	     -6.09191409	      0.21927333	      1.02463177	      0.26315320	      8.93064104	     -4.55605350	      0.88705111	    -63.89947470	      3.10479459	    -18.15361511	      1.66085466	      3.70347149	      8.73903878	     -0.74297838	    -10.19035507	      2.32754207	    -15.63544376	      3.77205295	     -5.81118446	     -6.81074956	      7.07805942
      1.38716667	      3.59375982	      4.44702592	     -5.95640291	      0.22441976	      1.02535647	      0.26293220	      9.43900447	     -4.35970400	      0.83038339	    -63.47682766	      3.37887362	    -18.15514673	      1.63223481	      3.20738818	      8.63570681	     -0.58038325	     -9.84439122	      2.39814393	    -15.59827358	      3.74491226	     -5.81738208	     -6.66389870	      6.90840873
      1.39133333	      3.60861794	      4.32270869	     -5.81034515	      0.22951197	      1.02607950	      0.26267415	      9.90249920	     -4.19101869	      0.76456178	    -63.01416267	      3.60754554	    -18.11294926	      1.56007244	      2.65503842	      8.56077659	     -0.31241082	     -9.45587479	      2.46574942	    -15.67910852	      3.67454412	     -5.89810691	     -6.53285518	      6.51226385
      1.39550000	      3.57897100	      4.18349490	     -5.66394246	      0.23461178	      1.02671519	      0.26244357	     10.39925506	     -3.99543583	      0.70362538	    -62.50047421	      3.86771488	    -18.11084879	      1.53350811	      2.17530829	      8.44945896	     -0.15526940	     -9.11855308	      2.52042818	    -15.61966325	      3.64563265	     -5.91693234	     -6.36734555	      6.38065102
      1.39966667	      3.61262636	      4.05813044	     -5.50910295	      0.23968613	      1.02739983	      0.26220371	     10.81547617	     -3.83075766	      0.62535135	    -61.93651825	      4.07219474	    -18.07036954	      1.46937496	      1.60460377	      8.36500844	      0.09898827	     -8.73079906	      2.59471369	    -15.66792787	      3.57597761	     -6.01827114	     -6.24559019	      6.01072651
      1.40383333	      3.59594589	      3.92976047	     -5.34678901	      0.24476645	      1.02797605	      0.26196303	     11.27397909	     -3.65833798	      0.54220268	    -61.32956523	      4.28132347	    -18.05989201	      1.40553536	      1.10138363	      8.26455556	      0.31230559	     -8.36778469	      2.65318702	    -15.67611676	      3.50330209	     -6.05461461	     -6.09604553	      5.74170629
      1.40800000	      3.55928413	      3.79791288	     -5.18459935	      0.24984126	      1.02849611	      0.26173353	     11.74278418	     -3.47871840	      0.46474908	    -60.67905184	      4.50115578	    -18.05859822	      1.38110022	      0.63396907	      8.14945475	      0.46769565	     -8.02881268	      2.70571242	    -15.59186749	      3.47394655	     -6.06861950	     -5.93367765	      5.59887604
      1.41216667	      3.57573106	      3.67972015	     -5.00955606	      0.25488729	      1.02903127	      0.26149271	     12.14072952	     -3.32856584	      0.36597044	    -59.98316619	      4.65705867	    -18.05981729	      1.31554307	      0.09388605	      8.05776200	      0.71461182	     -7.65539809	      2.78872800	    -15.62216136	      3.39753823	     -6.14702975	     -5.81580820	      5.19050383
      1.41633333	      3.54514999	      3.55315821	     -4.83225311	      0.25994691	      1.02947419	      0.26127219	     12.57301533	     -3.16177089	      0.27372681	    -59.24145167	      4.84706884	    -18.05288207	      1.28384996	     -0.37063630	      7.94139164	      0.87970385	     -7.33122853	      2.84396587	    -15.55814374	      3.35962637	     -6.16294836	     -5.67792521	      5.02085730
      1.42050000	      3.56598978	      3.45033271	     -4.65749801	      0.26497303	      1.02992366	      0.26104598	     12.94844434	     -3.03439363	      0.17453663	    -58.47362698	      4.97844546	    -18.07446267	      1.22219141	     -0.91014096	      7.85759167	      1.10889609	     -6.95799400	      2.92496505	    -15.56679517	      3.28779869	     -6.25152961	     -5.56294644	      4.64423216
      1.42466667	      3.55690230	      3.34147656	     -4.47506715	      0.26998807	      1.03029906	      0.26083627	     13.33895900	     -2.89476197	      0.07915405	    -57.66064973	      5.13243272	    -18.09298418	      1.14935102	     -1.40345194	      7.75806582	      1.32418037	     -6.60898475	      2.96800206	    -15.55746962	      3.20022741	     -6.30726509	     -5.45141452	      4.33980896
      1.42883333	      3.53463895	      3.22406879	     -4.28677086	      0.27502243	      1.03062859	      0.26061486	     13.72476724	     -2.75313051	     -0.03292678	    -56.79796191	      5.23745523	    -18.11178831	      1.09598596	     -1.87455335	      7.64321550	      1.50636129	     -6.28006214	      3.06405525	    -15.51096286	      3.13863216	     -6.33191270	     -5.30937567	      4.09518233
      1.43300000	      3.54422825	      3.12357898	     -4.10154658	      0.28002181	      1.03094788	      0.26041476	     14.06860111	     -2.63266200	     -0.13484974	    -55.90509919	      5.35159299	    -18.12905025	      1.03794943	     -2.37942088	      7.54553493	      1.69767974	     -5.94124583	      3.13029027	    -15.47157894	      3.07110644	     -6.40622504	     -5.20456670	      3.79569646
      1.43716667	      3.48649928	      3.02463080	     -3.91223378	      0.28503786	      1.03112766	      0.26022778	     14.47278317	     -2.50966912	     -0.23410230	    -54.97991488	      5.47491182	    -18.12530825	      1.00835055	     -2.79165945	      7.43784667	      1.84980753	     -5.64222973	      3.18964263	    -15.39412085	      3.03737023	     -6.39279405	     -5.09325266	      3.62228342
      1.44133333	      3.50340461	      2.93972250	     -3.72609813	      0.29001607	      1.03136980	      0.26004850	     14.78567706	     -2.41162796	     -0.33282027	    -54.01808156	      5.52995219	    -18.17267723	      0.94392110	     -3.30418971	      7.35130935	      2.06408593	     -5.29674902	      3.27298243	    -15.38235511	      2.96502402	     -6.48091239	     -5.00998986	      3.22092641
      1.44550000	      3.44225382	      2.86467267	     -3.55458850	      0.29502384	      1.03143439	      0.25988583	     15.18274386	     -2.32339214	     -0.42172363	    -53.04835986	      5.63980830	    -18.14108285	      0.92430659	     -3.71719392	      7.26511351	      2.19999281	     -4.97751574	      3.34702627	    -15.28197010	      2.94354128	     -6.46776499	     -4.91264642	      3.10061447
      1.44966667	      3.43229958	      2.75821658	     -3.34397553	      0.30001084	      1.03159354	      0.25969657	     15.47419511	     -2.20945662	     -0.54216389	    -51.97840018	      5.66820642	    -18.14620357	      0.88785012	     -4.16538298	      7.14251861	      2.37345091	     -4.70811216	      3.42987875	    -15.24540519	      2.90420683	     -6.50978138	     -4.80216473	      2.79913096
      1.45383333	      3.44310558	      2.70107193	     -3.17264500	      0.30498270	      1.03168158	      0.25955800	     15.76285019	     -2.14893454	     -0.62444732	    -50.93023317	      5.69358056	    -18.16300161	      0.83290403	     -4.66472648	      7.07671163	      2.56377922	     -4.36617927	      3.51913427	    -15.23202190	      2.84156361	     -6.58391778	     -4.75099269	      2.41866222
      1.45800000	      3.39677291	      2.63750471	     -2.99344016	      0.30996495	      1.03164819	      0.25942637	     16.09482318	     -2.08043246	     -0.70899339	    -49.84477060	      5.73455017	    -18.14054719	      0.77429313	     -5.08326835	      6.99507212	      2.73500827	     -4.06395013	      3.58730846	    -15.19723532	      2.77079135	     -6.59078494	     -4.68715998	      2.13996234
      1.46216667	      3.34805041	      2.57176907	     -2.81912646	      0.31496391	      1.03159628	      0.25928898	     16.40945085	     -2.01592040	     -0.79706482	    -48.71633829	      5.76606641	    -18.07345445	      0.74738728	     -5.48796534	      6.90905329	      2.85678291	     -3.78579458	      3.66845771	    -15.12022540	      2.73838502	     -6.57995795	     -4.60865306	      1.98896661
      1.46633333	      3.34937066	      2.51103158	     -2.65459480	      0.31994249	      1.03156370	      0.25918601	     16.65803535	     -1.95655600	     -0.87311368	    -47.55839982	      5.74840384	    -18.06714428	      0.69736435	     -5.96490025	      6.82891959	      3.01814607	     -3.46853516	      3.76680949	    -15.07933546	      2.67450913	     -6.64701074	     -4.55309308	      1.66099625
      1.47050000	      3.27445767	      2.46737157	     -2.49359846	      0.32494880	      1.03137023	      0.25908215	     16.98205111	     -1.91866561	     -0.94921961	    -46.38650917	      5.76447025	    -17.96836468	      0.67602702	     -6.33450131	      6.76240765	      3.12693093	     -3.20105015	      3.84997148	    -15.00569230	      2.64519612	     -6.60680338	     -4.50246466	      1.52106043
